HIERARCHY
ROOT Hips
{
	OFFSET	0.00	0.00	0.00
	CHANNELS 6 Xposition Yposition Zposition Zrotation Xrotation Yrotation
	JOINT LeftUpLeg
	{
		OFFSET	 0.126116	-0.014019	-0.065224
		CHANNELS 3 Zrotation Xrotation Yrotation
		JOINT LeftLeg
		{
			OFFSET	 0.000000	 0.000000	 0.569914
			CHANNELS 3 Zrotation Xrotation Yrotation
			JOINT LeftFoot
			{
				OFFSET	 0.000000	 0.000000	 0.544423
				CHANNELS 3 Zrotation Xrotation Yrotation
				JOINT LeftToeBase
				{
					OFFSET	 0.000000	 0.000000	 0.207117
					CHANNELS 3 Zrotation Xrotation Yrotation
					End Site
					{
						OFFSET	 0.000000	 0.000000	 0.207117
					}
				}
			}
		}
	}
	JOINT RightUpLeg
	{
		OFFSET	-0.124023	-0.008373	-0.065224
		CHANNELS 3 Zrotation Xrotation Yrotation
		JOINT RightLeg
		{
			OFFSET	 0.000000	 0.000000	 0.570047
			CHANNELS 3 Zrotation Xrotation Yrotation
			JOINT RightFoot
			{
				OFFSET	 0.000000	 0.000000	 0.544354
				CHANNELS 3 Zrotation Xrotation Yrotation
				JOINT RightToeBase
				{
					OFFSET	 0.000000	 0.000000	 0.207540
					CHANNELS 3 Zrotation Xrotation Yrotation
					End Site
					{
						OFFSET	 0.000000	 0.000000	 0.207540
					}
				}
			}
		}
	}
	JOINT Spine
	{
		OFFSET	 0.000184	-0.007763	 0.117403
		CHANNELS 3 Zrotation Xrotation Yrotation
		JOINT Spine1
		{
			OFFSET	 0.000000	 0.000000	 0.137269
			CHANNELS 3 Zrotation Xrotation Yrotation
			JOINT Spine2
			{
				OFFSET	 0.000000	 0.000000	 0.156879
				CHANNELS 3 Zrotation Xrotation Yrotation
				JOINT LeftShoulder
				{
					OFFSET	 0.080501	-0.002496	 0.160144
					CHANNELS 3 Zrotation Xrotation Yrotation
					JOINT LeftArm
					{
						OFFSET	 0.000000	 0.000000	 0.164363
						CHANNELS 3 Zrotation Xrotation Yrotation
						JOINT LeftForeArm
						{
							OFFSET	 0.000000	 0.000000	 0.364576
							CHANNELS 3 Zrotation Xrotation Yrotation
							JOINT LeftHand
							{
								OFFSET	 0.000000	 0.000000	 0.360812
								CHANNELS 3 Zrotation Xrotation Yrotation
								JOINT LeftHandIndex1
								{
									OFFSET	 0.000000	 0.000000	 0.086006
									CHANNELS 3 Zrotation Xrotation Yrotation
									JOINT LeftHandIndex2
									{
										OFFSET	 0.000000	 0.000000	 0.047237
										CHANNELS 3 Zrotation Xrotation Yrotation
										JOINT LeftHandIndex3
										{
											OFFSET	-0.004284	-0.000551	 0.038165
											CHANNELS 3 Zrotation Xrotation Yrotation
											End Site
											{
												OFFSET	-0.004284	-0.000551	 0.038165
											}
										}
									}
								}
							}
						}
					}
				}
				JOINT Neck
				{
					OFFSET	 0.000000	 0.000000	 0.176489
					CHANNELS 3 Zrotation Xrotation Yrotation
					JOINT Head
					{
						OFFSET	 0.000000	-0.001747	 0.077940
						CHANNELS 3 Zrotation Xrotation Yrotation
						End Site
						{
							OFFSET	 0.000000	-0.001747	 0.077940
						}
					}
				}
				JOINT RightShoulder
				{
					OFFSET	-0.080363	 0.000306	 0.159706
					CHANNELS 3 Zrotation Xrotation Yrotation
					JOINT RightArm
					{
						OFFSET	 0.000000	 0.000000	 0.164196
						CHANNELS 3 Zrotation Xrotation Yrotation
						JOINT RightForeArm
						{
							OFFSET	 0.000000	 0.000000	 0.365611
							CHANNELS 3 Zrotation Xrotation Yrotation
							JOINT RightHand
							{
								OFFSET	 0.000000	 0.000000	 0.360648
								CHANNELS 3 Zrotation Xrotation Yrotation
								JOINT RightHandIndex1
								{
									OFFSET	 0.000000	 0.000000	 0.069977
									CHANNELS 3 Zrotation Xrotation Yrotation
									JOINT RightHandIndex2
									{
										OFFSET	 0.000000	 0.000000	 0.052305
										CHANNELS 3 Zrotation Xrotation Yrotation
										JOINT RightHandIndex3
										{
											OFFSET	 0.009002	-0.000782	 0.042196
											CHANNELS 3 Zrotation Xrotation Yrotation
											End Site
											{
												OFFSET	 0.009002	-0.000782	 0.042196
											}
										}
									}
								}
							}
						}
					}
				}
			}
		}
	}
}
MOTION
Frames:    4
Frame Time: 0.03333334
-0.722412	-0.025363	 1.260353	 168.570300	-4.644979	 2.528239	-3.081789	-3.989262	 177.358200	-1.998141	-35.203990	-1.997303	-57.653510	 80.811020	 47.117200	-2.385833	 28.452760	 0.000004	-22.021300	-6.701906	-172.628000	 10.518690	-33.506580	 5.976974	 20.392580	 83.318450	-21.675220	 2.384659	 28.388700	-0.000001	-0.385588	-1.686110	-16.212860	-1.911327	 15.317960	 1.420766	 15.357560	-3.332082	 9.647020	-91.776200	 78.527400	-180.000000	 30.479090	 54.099030	-53.108180	-39.033060	 7.366826	-18.796950	-39.115990	-36.074980	-22.680020	-4.130354	 21.526190	 0.991307	-5.167926	 0.731697	 3.519349	-1.378229	 35.397820	-2.634230	 14.836960	 5.170549	-3.678664	 9.808673	-13.785480	-3.893875	 89.782100	 78.203830	 180.000000	-61.161850	 12.811470	 74.234100	 11.280200	 0.496651	 141.162400	 21.592990	 32.196160	 21.182880	 5.716295	 19.173350	-3.684826	 5.027458	 0.246833	-9.377971	-2.350882	 35.473990	 5.254307
-0.722603	-0.024556	 1.259677	 167.903500	-4.748487	 2.795187	-4.026727	-3.702307	 177.642700	-1.663988	-35.192620	-1.803725	-58.625650	 81.143640	 47.681200	-2.385833	 28.452760	 0.000004	-22.910020	-6.797102	-172.442600	 10.891900	-33.479100	 6.183839	 19.626260	 83.213780	-21.284850	 2.384659	 28.388700	-0.000001	 0.690502	-2.097673	-16.984260	-1.967656	 16.953920	 1.367925	 15.584150	-5.960263	 10.561190	-91.776190	 78.527400	-180.000000	 32.092900	 52.663350	-51.334750	-38.489330	 9.889245	-25.143240	-40.844710	-36.360770	-23.890390	-4.130354	 21.526190	 0.991307	-5.167926	 0.731697	 3.519349	-1.378229	 35.397820	-2.634230	 15.086360	 5.396463	-4.512876	 9.626731	-15.767720	-4.060071	 89.782110	 78.203890	 180.000000	-61.690350	 10.936000	 74.110460	 12.589900	-0.571956	 140.463700	 14.427340	 32.772130	 26.492190	 5.716295	 19.173350	-3.684826	 5.027458	 0.246833	-9.377971	-2.350882	 35.473990	 5.254307
-0.722621	-0.023952	 1.258796	 167.192300	-4.794847	 2.659617	-5.016437	-3.360222	 178.378800	-1.314092	-34.821360	-1.586967	-56.363520	 81.420850	 44.974060	-2.385833	 28.452760	 0.000004	-23.639640	-7.204893	-171.901800	 11.292500	-33.611450	 6.433080	 19.640510	 83.245150	-21.657050	 2.384659	 28.388700	-0.000001	 2.076856	-2.654089	-17.591340	-1.859725	 18.436530	 1.618310	 15.758360	-8.507141	 11.146950	-91.776180	 78.527350	-180.000000	 32.865430	 51.087860	-47.896030	-36.592950	 13.633140	-35.633570	-42.362790	-36.389780	-24.681430	-4.130354	 21.526190	 0.991307	-5.167926	 0.731697	 3.519349	-1.378229	 35.397820	-2.634230	 15.155920	 5.890922	-5.113800	 9.526507	-18.081480	-4.012792	 89.782130	 78.203850	 180.000000	-61.388940	 7.779703	 73.856640	 14.446260	-2.179761	 139.491600	 4.571159	 31.415940	 33.415210	 5.716295	 19.173350	-3.684826	 5.027458	 0.246833	-9.377971	-2.350882	 35.473990	 5.254307
-0.721705	-0.024173	 1.257551	 166.527600	-5.039003	 2.764206	-6.327287	-2.800756	 178.865700	-0.862487	-34.368200	-1.313592	-56.766250	 81.773720	 44.885860	-2.385833	 28.452760	 0.000004	-24.571320	-7.253716	-171.586100	 11.690450	-33.536660	 6.646891	 18.352300	 83.125480	-20.706470	 2.384659	 28.388700	-0.000001	 3.622519	-3.217033	-18.110640	-1.198346	 19.672640	 1.084226	 15.827760	-10.373320	 11.685580	-91.776200	 78.527400	-180.000000	 31.298960	 49.297620	-43.760370	-33.257880	 17.250530	-48.166440	-43.478150	-36.405460	-25.030410	-4.130354	 21.526190	 0.991307	-5.167926	 0.731697	 3.519349	-1.378229	 35.397820	-2.634230	 14.854350	 5.304462	-5.067792	 9.264463	-18.894900	-4.446690	 89.782070	 78.203890	-180.000000	-60.808460	 4.168349	 73.758900	 16.284660	-3.902761	 138.424300	-5.061088	 27.817180	 38.726740	 5.716295	 19.173350	-3.684826	 5.027458	 0.246833	-9.377971	-2.350882	 35.473990	 5.254307
